# Blender v2.79 (sub 0) OBJ File: 'sprites.blend'
# www.blender.org
mtllib pion.mtl
o Cylinder
v 0.000000 0.023306 -0.500000
v 0.000000 1.285325 -0.336187
v 0.191342 0.023306 -0.461940
v 0.128653 1.285325 -0.310597
v 0.353553 0.023306 -0.353553
v 0.237720 1.285325 -0.237720
v 0.461940 0.023306 -0.191342
v 0.310597 1.285325 -0.128653
v 0.500000 0.023306 0.000000
v 0.336187 1.285325 0.000000
v 0.461940 0.023306 0.191342
v 0.310597 1.285325 0.128653
v 0.353553 0.023306 0.353553
v 0.237720 1.285325 0.237720
v 0.191342 0.023306 0.461940
v 0.128653 1.285325 0.310597
v 0.000000 0.023306 0.500000
v 0.000000 1.285325 0.336187
v -0.191342 0.023306 0.461940
v -0.128653 1.285325 0.310597
v -0.353553 0.023306 0.353554
v -0.237720 1.285325 0.237721
v -0.461940 0.023306 0.191342
v -0.310597 1.285325 0.128653
v -0.500000 0.023306 -0.000000
v -0.336187 1.285325 -0.000000
v -0.461940 0.023306 -0.191342
v -0.310597 1.285325 -0.128653
v -0.353553 0.023306 -0.353554
v -0.237720 1.285325 -0.237721
v -0.191341 0.023306 -0.461940
v -0.128653 1.285325 -0.310597
v 0.000000 0.080125 -0.500000
v 0.191342 0.080125 -0.461940
v 0.353553 0.080125 -0.353553
v 0.461940 0.080125 -0.191342
v 0.500000 0.080125 0.000000
v 0.461940 0.080125 0.191342
v 0.353553 0.080125 0.353553
v 0.191342 0.080125 0.461940
v 0.000000 0.080125 0.500000
v -0.191342 0.080125 0.461940
v -0.353553 0.080125 0.353554
v -0.461940 0.080125 0.191342
v -0.500000 0.080125 -0.000000
v -0.461940 0.080125 -0.191342
v -0.353553 0.080125 -0.353554
v -0.191341 0.080125 -0.461940
v 0.000000 0.080401 -0.286952
v 0.109812 0.080401 -0.265109
v 0.202905 0.080401 -0.202905
v 0.265109 0.080401 -0.109812
v 0.286952 0.080401 0.000000
v 0.265109 0.080401 0.109812
v 0.202905 0.080401 0.202905
v 0.109812 0.080401 0.265109
v 0.000000 0.080401 0.286952
v -0.109812 0.080401 0.265109
v -0.202905 0.080401 0.202905
v -0.265109 0.080401 0.109812
v -0.286952 0.080401 -0.000000
v -0.265109 0.080401 -0.109812
v -0.202905 0.080401 -0.202905
v -0.109811 0.080401 -0.265109
v -0.000000 0.087462 -0.538087
v 0.205917 0.087463 -0.497128
v 0.380485 0.087463 -0.380485
v 0.497128 0.087463 -0.205917
v 0.538087 0.087463 0.000000
v 0.497128 0.087462 0.205917
v 0.380485 0.087463 0.380485
v 0.205917 0.087463 0.497128
v 0.000000 0.087463 0.538087
v -0.205917 0.087462 0.497128
v -0.380485 0.087462 0.380485
v -0.497128 0.087462 0.205917
v -0.538087 0.087462 -0.000000
v -0.497128 0.087462 -0.205917
v -0.380485 0.087462 -0.380485
v -0.205917 0.087462 -0.497128
v -0.000000 0.276318 -0.542275
v 0.207520 0.276318 -0.500997
v 0.383447 0.276318 -0.383447
v 0.500997 0.276318 -0.207520
v 0.542275 0.276318 0.000000
v 0.500997 0.276318 0.207520
v 0.383447 0.276318 0.383447
v 0.207520 0.276318 0.500997
v 0.000000 0.276318 0.542275
v -0.207520 0.276318 0.500997
v -0.383447 0.276318 0.383447
v -0.500997 0.276318 0.207520
v -0.542275 0.276318 -0.000000
v -0.500997 0.276318 -0.207520
v -0.383447 0.276318 -0.383447
v -0.207520 0.276318 -0.500997
v -0.000000 0.390270 -0.401017
v 0.153462 0.390270 -0.370491
v 0.283562 0.390270 -0.283562
v 0.370491 0.390270 -0.153462
v 0.401017 0.390270 0.000000
v 0.370491 0.390270 0.153462
v 0.283562 0.390270 0.283562
v 0.153462 0.390270 0.370491
v 0.000000 0.390270 0.401017
v -0.153462 0.390270 0.370491
v -0.283562 0.390270 0.283562
v -0.370491 0.390270 0.153462
v -0.401017 0.390270 -0.000000
v -0.370491 0.390270 -0.153462
v -0.283561 0.390270 -0.283562
v -0.153462 0.390270 -0.370491
v 0.000000 0.522559 -0.401657
v 0.153708 0.522559 -0.371083
v 0.284015 0.522559 -0.284015
v 0.371083 0.522559 -0.153708
v 0.401657 0.522559 0.000000
v 0.371083 0.522559 0.153708
v 0.284015 0.522559 0.284015
v 0.153708 0.522559 0.371083
v 0.000000 0.522559 0.401657
v -0.153707 0.522559 0.371083
v -0.284014 0.522559 0.284015
v -0.371083 0.522559 0.153708
v -0.401657 0.522559 -0.000000
v -0.371083 0.522559 -0.153708
v -0.284014 0.522559 -0.284015
v -0.153707 0.522559 -0.371083
v 0.000000 0.576182 -0.282587
v 0.108141 0.576182 -0.261076
v 0.199819 0.576182 -0.199819
v 0.261076 0.576182 -0.108141
v 0.282587 0.576182 0.000000
v 0.261076 0.576182 0.108141
v 0.199819 0.576182 0.199819
v 0.108141 0.576182 0.261076
v 0.000000 0.576182 0.282587
v -0.108141 0.576182 0.261076
v -0.199819 0.576182 0.199819
v -0.261076 0.576182 0.108141
v -0.282587 0.576182 -0.000000
v -0.261076 0.576182 -0.108141
v -0.199819 0.576182 -0.199819
v -0.108141 0.576182 -0.261076
v 0.000000 1.203531 -0.151996
v 0.058166 1.203531 -0.140426
v 0.107477 1.203531 -0.107477
v 0.140426 1.203531 -0.058166
v 0.151996 1.203531 0.000000
v 0.140426 1.203531 0.058166
v 0.107477 1.203531 0.107477
v 0.058166 1.203531 0.140426
v 0.000000 1.203531 0.151996
v -0.058166 1.203531 0.140426
v -0.107477 1.203531 0.107477
v -0.140426 1.203531 0.058166
v -0.151996 1.203531 -0.000000
v -0.140426 1.203531 -0.058166
v -0.107477 1.203531 -0.107477
v -0.058166 1.203531 -0.140426
v 0.000000 1.322126 -0.336187
v 0.128653 1.322126 -0.310597
v 0.237720 1.322126 -0.237720
v 0.310597 1.322126 -0.128653
v 0.336187 1.322126 0.000000
v 0.310597 1.322126 0.128653
v 0.237720 1.322126 0.237720
v 0.128653 1.322126 0.310597
v 0.000000 1.322126 0.336187
v -0.128653 1.322126 0.310597
v -0.237720 1.322126 0.237721
v -0.310597 1.322126 0.128653
v -0.336187 1.322126 -0.000000
v -0.310597 1.322126 -0.128653
v -0.237720 1.322126 -0.237721
v -0.128653 1.322126 -0.310597
v 0.000000 1.391638 -0.141341
v 0.054089 1.391638 -0.130582
v 0.099943 1.391638 -0.099943
v 0.130582 1.391638 -0.054089
v 0.141341 1.391638 0.000000
v 0.130582 1.391638 0.054089
v 0.099943 1.391638 0.099943
v 0.054089 1.391638 0.130582
v 0.000000 1.391638 0.141341
v -0.054089 1.391638 0.130582
v -0.099943 1.391638 0.099943
v -0.130582 1.391638 0.054089
v -0.141341 1.391638 -0.000000
v -0.130582 1.391638 -0.054089
v -0.099943 1.391638 -0.099943
v -0.054089 1.391638 -0.130582
v 0.000000 1.925984 -0.141341
v 0.054089 1.925984 -0.130582
v 0.099943 1.925984 -0.099943
v 0.130582 1.925984 -0.054089
v 0.141341 1.925984 0.000000
v 0.130582 1.925984 0.054089
v 0.099943 1.925984 0.099943
v 0.054089 1.925984 0.130582
v 0.000000 1.925984 0.141341
v -0.054089 1.925984 0.130582
v -0.099943 1.925984 0.099943
v -0.130582 1.925984 0.054089
v -0.141341 1.925984 -0.000000
v -0.130582 1.925984 -0.054089
v -0.099943 1.925984 -0.099943
v -0.054089 1.925984 -0.130582
v 0.394088 1.709270 -0.163237
v 0.426558 1.709270 0.000000
v -0.394088 1.709270 0.163237
v -0.426558 1.709270 -0.000000
v 0.394088 1.709270 0.163237
v -0.394088 1.709270 -0.163237
v 0.301622 1.709270 0.301622
v -0.301622 1.709270 -0.301622
v 0.163237 1.709270 0.394088
v -0.163236 1.709270 -0.394088
v 0.000000 1.709270 0.426558
v -0.000000 1.709270 -0.426558
v 0.163237 1.709270 -0.394088
v -0.163236 1.709270 0.394088
v 0.301622 1.709270 -0.301622
v -0.301622 1.709270 0.301622
v 0.345940 1.817627 -0.143293
v -0.345940 1.817627 0.143293
v -0.000000 1.817627 -0.374443
v 0.374443 1.817627 0.000000
v -0.374443 1.817627 -0.000000
v 0.345940 1.817627 0.143293
v -0.345940 1.817627 -0.143293
v 0.264771 1.817627 0.264771
v -0.264771 1.817627 -0.264771
v 0.143293 1.817627 0.345940
v -0.143293 1.817627 -0.345940
v 0.000000 1.817627 0.374443
v 0.143293 1.817627 -0.345940
v -0.143293 1.817627 0.345940
v 0.264771 1.817627 -0.264771
v -0.264771 1.817627 0.264771
vn 0.0805 -0.9110 -0.4045
vn 0.2292 -0.9110 -0.3430
vn 0.3429 -0.9110 -0.2292
vn 0.4045 -0.9110 -0.0805
vn 0.4045 -0.9110 0.0805
vn 0.3429 -0.9110 0.2292
vn 0.2292 -0.9110 0.3429
vn 0.0805 -0.9110 0.4045
vn -0.0805 -0.9110 0.4045
vn -0.2292 -0.9110 0.3429
vn -0.3429 -0.9110 0.2292
vn -0.4045 -0.9110 0.0805
vn -0.4045 -0.9110 -0.0805
vn -0.3429 -0.9110 -0.2292
vn 0.9808 0.0000 0.1951
vn -0.2292 -0.9110 -0.3430
vn -0.0805 -0.9110 -0.4045
vn 0.0000 -1.0000 0.0000
vn -0.1951 0.0000 -0.9808
vn -0.5556 0.0000 -0.8315
vn -0.8315 0.0000 -0.5556
vn -0.9808 0.0000 -0.1951
vn -0.9808 0.0000 0.1951
vn -0.8315 0.0000 0.5556
vn -0.5556 0.0000 0.8315
vn -0.1951 0.0000 0.9808
vn 0.1951 0.0000 0.9808
vn 0.5556 0.0000 0.8315
vn 0.8315 0.0000 0.5556
vn 0.9808 0.0000 -0.1951
vn 0.8315 0.0000 -0.5556
vn 0.5556 0.0000 -0.8315
vn 0.1951 0.0000 -0.9808
vn -0.0003 1.0000 -0.0013
vn -0.0007 1.0000 -0.0011
vn -0.0011 1.0000 -0.0007
vn -0.0013 1.0000 -0.0003
vn -0.0013 1.0000 0.0003
vn -0.0011 1.0000 0.0007
vn -0.0007 1.0000 0.0011
vn -0.0003 1.0000 0.0013
vn 0.0003 1.0000 0.0013
vn 0.0007 1.0000 0.0011
vn 0.0011 1.0000 0.0007
vn 0.0013 1.0000 0.0003
vn 0.0013 1.0000 -0.0003
vn 0.0011 1.0000 -0.0007
vn 0.0007 1.0000 -0.0011
vn 0.0003 1.0000 -0.0013
vn -0.0056 -0.9996 -0.0281
vn -0.0159 -0.9996 -0.0238
vn -0.0238 -0.9996 -0.0159
vn -0.0281 -0.9996 -0.0056
vn -0.0281 -0.9996 0.0056
vn -0.0238 -0.9996 0.0159
vn -0.0159 -0.9996 0.0238
vn -0.0056 -0.9996 0.0281
vn 0.0056 -0.9996 0.0281
vn 0.0159 -0.9996 0.0238
vn 0.0238 -0.9996 0.0159
vn 0.0281 -0.9996 0.0056
vn 0.0281 -0.9996 -0.0056
vn 0.0238 -0.9996 -0.0159
vn 0.0159 -0.9996 -0.0238
vn 0.0056 -0.9996 -0.0281
vn -0.1950 -0.0217 -0.9806
vn -0.5554 -0.0217 -0.8313
vn -0.8313 -0.0217 -0.5554
vn -0.9806 -0.0217 -0.1950
vn -0.9806 -0.0217 0.1950
vn -0.8313 -0.0217 0.5554
vn -0.5554 -0.0217 0.8313
vn -0.1950 -0.0217 0.9806
vn 0.1950 -0.0217 0.9806
vn 0.5554 -0.0217 0.8313
vn 0.8313 -0.0217 0.5554
vn 0.9806 -0.0217 0.1950
vn 0.9806 -0.0217 -0.1950
vn 0.8313 -0.0217 -0.5554
vn 0.5554 -0.0217 -0.8313
vn 0.1950 -0.0217 -0.9806
vn -0.1239 0.7723 -0.6230
vn -0.3529 0.7723 -0.5282
vn -0.5282 0.7723 -0.3529
vn -0.6230 0.7723 -0.1239
vn -0.6230 0.7723 0.1239
vn -0.5282 0.7723 0.3529
vn -0.3529 0.7723 0.5282
vn -0.1239 0.7723 0.6230
vn 0.1239 0.7723 0.6230
vn 0.3529 0.7723 0.5282
vn 0.5282 0.7723 0.3529
vn 0.6230 0.7723 0.1239
vn 0.6230 0.7723 -0.1239
vn 0.5282 0.7723 -0.3529
vn 0.3529 0.7723 -0.5282
vn 0.1239 0.7723 -0.6230
vn -0.1951 -0.0047 -0.9808
vn -0.5556 -0.0047 -0.8315
vn -0.8315 -0.0047 -0.5556
vn -0.9808 -0.0047 -0.1951
vn -0.9808 -0.0047 0.1951
vn -0.8315 -0.0047 0.5556
vn -0.5556 -0.0047 0.8315
vn -0.1951 -0.0047 0.9808
vn 0.1951 -0.0047 0.9808
vn 0.5556 -0.0047 0.8315
vn 0.8315 -0.0047 0.5556
vn 0.9808 -0.0047 0.1951
vn 0.9808 -0.0047 -0.1951
vn 0.8315 -0.0047 -0.5556
vn 0.5556 -0.0047 -0.8315
vn 0.1951 -0.0047 -0.9808
vn -0.0814 0.9088 -0.4093
vn -0.2318 0.9088 -0.3470
vn -0.3470 0.9088 -0.2318
vn -0.4093 0.9088 -0.0814
vn -0.4093 0.9088 0.0814
vn -0.3470 0.9088 0.2318
vn -0.2318 0.9088 0.3470
vn -0.0814 0.9088 0.4093
vn 0.0814 0.9088 0.4093
vn 0.2318 0.9088 0.3470
vn 0.3470 0.9088 0.2318
vn 0.4093 0.9088 0.0814
vn 0.4093 0.9088 -0.0814
vn 0.3470 0.9088 -0.2318
vn 0.2318 0.9088 -0.3470
vn 0.0814 0.9088 -0.4093
vn -0.1911 0.2000 -0.9610
vn -0.5443 0.2000 -0.8147
vn -0.8147 0.2000 -0.5443
vn -0.9610 0.2000 -0.1911
vn -0.9610 0.2000 0.1911
vn -0.8147 0.2000 0.5443
vn -0.5443 0.2000 0.8147
vn -0.1911 0.2000 0.9610
vn 0.1911 0.2000 0.9610
vn 0.5443 0.2000 0.8147
vn 0.8147 0.2000 0.5443
vn 0.9610 0.2000 0.1911
vn 0.9610 0.2000 -0.1911
vn 0.8147 0.2000 -0.5443
vn 0.5443 0.2000 -0.8147
vn 0.1911 0.2000 -0.9610
vn -0.2842 0.9398 -0.1899
vn 0.4201 0.9036 -0.0836
vn 0.1899 0.9398 0.2842
vn -0.1899 0.9398 -0.2842
vn 0.0667 0.9398 0.3353
vn 0.0667 0.9398 -0.3353
vn -0.0667 0.9398 -0.3353
vn -0.0667 0.9398 0.3353
vn 0.1899 0.9398 -0.2842
vn -0.1899 0.9398 0.2842
vn 0.2842 0.9398 -0.1899
vn -0.2842 0.9398 0.1899
vn 0.3353 0.9398 -0.0667
vn -0.3353 0.9398 0.0667
vn 0.3353 0.9398 0.0667
vn -0.3353 0.9398 -0.0667
vn 0.2842 0.9398 0.1899
vn 0.0000 1.0000 0.0000
vn -0.4201 0.9036 0.0836
vn 0.4201 0.9036 0.0836
vn -0.4201 0.9036 -0.0836
vn 0.3561 0.9036 0.2379
vn -0.3561 0.9036 -0.2379
vn 0.2379 0.9036 0.3561
vn -0.2379 0.9036 -0.3561
vn 0.0836 0.9036 0.4201
vn 0.0836 0.9036 -0.4201
vn -0.0836 0.9036 -0.4201
vn -0.0836 0.9036 0.4201
vn 0.2379 0.9036 -0.3561
vn -0.2379 0.9036 0.3561
vn 0.3561 0.9036 -0.2379
vn -0.3561 0.9036 0.2379
vn -0.6240 -0.6609 0.4169
vn 0.6240 -0.6609 -0.4169
vn -0.4169 -0.6609 0.6240
vn 0.4169 -0.6609 -0.6240
vn -0.1464 -0.6609 0.7360
vn -0.1464 -0.6609 -0.7360
vn 0.1464 -0.6609 -0.7360
vn 0.1464 -0.6609 0.7360
vn -0.4169 -0.6609 -0.6240
vn 0.4169 -0.6609 0.6240
vn -0.6240 -0.6609 -0.4169
vn 0.6240 -0.6609 0.4169
vn -0.7360 -0.6609 -0.1464
vn 0.7360 -0.6609 0.1464
vn -0.7360 -0.6609 0.1464
vn 0.7360 -0.6609 -0.1464
vn -0.7520 0.4266 0.5025
vn 0.7520 0.4266 -0.5025
vn -0.5025 0.4266 0.7520
vn 0.5025 0.4266 -0.7520
vn -0.1764 0.4266 0.8870
vn -0.1764 0.4266 -0.8870
vn 0.1764 0.4266 -0.8870
vn 0.1764 0.4266 0.8870
vn -0.5025 0.4266 -0.7520
vn 0.5025 0.4266 0.7520
vn -0.7520 0.4266 -0.5025
vn 0.7520 0.4266 0.5025
vn -0.8870 0.4266 -0.1764
vn 0.8870 0.4266 0.1764
vn -0.8870 0.4266 0.1764
vn 0.8870 0.4266 -0.1764
usemtl Material.004
s off
f 145//1 2//1 4//1 146//1
f 146//2 4//2 6//2 147//2
f 147//3 6//3 8//3 148//3
f 148//4 8//4 10//4 149//4
f 149//5 10//5 12//5 150//5
f 150//6 12//6 14//6 151//6
f 151//7 14//7 16//7 152//7
f 152//8 16//8 18//8 153//8
f 153//9 18//9 20//9 154//9
f 154//10 20//10 22//10 155//10
f 155//11 22//11 24//11 156//11
f 156//12 24//12 26//12 157//12
f 157//13 26//13 28//13 158//13
f 158//14 28//14 30//14 159//14
f 12//15 10//15 165//15 166//15
f 159//16 30//16 32//16 160//16
f 160//17 32//17 2//17 145//17
f 1//18 3//18 5//18 7//18 9//18 11//18 13//18 15//18 17//18 19//18 21//18 23//18 25//18 27//18 29//18 31//18
f 31//19 48//19 33//19 1//19
f 29//20 47//20 48//20 31//20
f 27//21 46//21 47//21 29//21
f 25//22 45//22 46//22 27//22
f 23//23 44//23 45//23 25//23
f 21//24 43//24 44//24 23//24
f 19//25 42//25 43//25 21//25
f 17//26 41//26 42//26 19//26
f 15//27 40//27 41//27 17//27
f 13//28 39//28 40//28 15//28
f 11//29 38//29 39//29 13//29
f 9//15 37//15 38//15 11//15
f 7//30 36//30 37//30 9//30
f 5//31 35//31 36//31 7//31
f 3//32 34//32 35//32 5//32
f 1//33 33//33 34//33 3//33
f 48//34 64//34 49//34 33//34
f 47//35 63//35 64//35 48//35
f 46//36 62//36 63//36 47//36
f 45//37 61//37 62//37 46//37
f 44//38 60//38 61//38 45//38
f 43//39 59//39 60//39 44//39
f 42//40 58//40 59//40 43//40
f 41//41 57//41 58//41 42//41
f 40//42 56//42 57//42 41//42
f 39//43 55//43 56//43 40//43
f 38//44 54//44 55//44 39//44
f 37//45 53//45 54//45 38//45
f 36//46 52//46 53//46 37//46
f 35//47 51//47 52//47 36//47
f 34//48 50//48 51//48 35//48
f 33//49 49//49 50//49 34//49
f 64//50 80//50 65//50 49//50
f 63//51 79//51 80//51 64//51
f 62//52 78//52 79//52 63//52
f 61//53 77//53 78//53 62//53
f 60//54 76//54 77//54 61//54
f 59//55 75//55 76//55 60//55
f 58//56 74//56 75//56 59//56
f 57//57 73//57 74//57 58//57
f 56//58 72//58 73//58 57//58
f 55//59 71//59 72//59 56//59
f 54//60 70//60 71//60 55//60
f 53//61 69//61 70//61 54//61
f 52//62 68//62 69//62 53//62
f 51//63 67//63 68//63 52//63
f 50//64 66//64 67//64 51//64
f 49//65 65//65 66//65 50//65
f 80//66 96//66 81//66 65//66
f 79//67 95//67 96//67 80//67
f 78//68 94//68 95//68 79//68
f 77//69 93//69 94//69 78//69
f 76//70 92//70 93//70 77//70
f 75//71 91//71 92//71 76//71
f 74//72 90//72 91//72 75//72
f 73//73 89//73 90//73 74//73
f 72//74 88//74 89//74 73//74
f 71//75 87//75 88//75 72//75
f 70//76 86//76 87//76 71//76
f 69//77 85//77 86//77 70//77
f 68//78 84//78 85//78 69//78
f 67//79 83//79 84//79 68//79
f 66//80 82//80 83//80 67//80
f 65//81 81//81 82//81 66//81
f 96//82 112//82 97//82 81//82
f 95//83 111//83 112//83 96//83
f 94//84 110//84 111//84 95//84
f 93//85 109//85 110//85 94//85
f 92//86 108//86 109//86 93//86
f 91//87 107//87 108//87 92//87
f 90//88 106//88 107//88 91//88
f 89//89 105//89 106//89 90//89
f 88//90 104//90 105//90 89//90
f 87//91 103//91 104//91 88//91
f 86//92 102//92 103//92 87//92
f 85//93 101//93 102//93 86//93
f 84//94 100//94 101//94 85//94
f 83//95 99//95 100//95 84//95
f 82//96 98//96 99//96 83//96
f 81//97 97//97 98//97 82//97
f 112//98 128//98 113//98 97//98
f 111//99 127//99 128//99 112//99
f 110//100 126//100 127//100 111//100
f 109//101 125//101 126//101 110//101
f 108//102 124//102 125//102 109//102
f 107//103 123//103 124//103 108//103
f 106//104 122//104 123//104 107//104
f 105//105 121//105 122//105 106//105
f 104//106 120//106 121//106 105//106
f 103//107 119//107 120//107 104//107
f 102//108 118//108 119//108 103//108
f 101//109 117//109 118//109 102//109
f 100//110 116//110 117//110 101//110
f 99//111 115//111 116//111 100//111
f 98//112 114//112 115//112 99//112
f 97//113 113//113 114//113 98//113
f 128//114 144//114 129//114 113//114
f 127//115 143//115 144//115 128//115
f 126//116 142//116 143//116 127//116
f 125//117 141//117 142//117 126//117
f 124//118 140//118 141//118 125//118
f 123//119 139//119 140//119 124//119
f 122//120 138//120 139//120 123//120
f 121//121 137//121 138//121 122//121
f 120//122 136//122 137//122 121//122
f 119//123 135//123 136//123 120//123
f 118//124 134//124 135//124 119//124
f 117//125 133//125 134//125 118//125
f 116//126 132//126 133//126 117//126
f 115//127 131//127 132//127 116//127
f 114//128 130//128 131//128 115//128
f 113//129 129//129 130//129 114//129
f 144//130 160//130 145//130 129//130
f 143//131 159//131 160//131 144//131
f 142//132 158//132 159//132 143//132
f 141//133 157//133 158//133 142//133
f 140//134 156//134 157//134 141//134
f 139//135 155//135 156//135 140//135
f 138//136 154//136 155//136 139//136
f 137//137 153//137 154//137 138//137
f 136//138 152//138 153//138 137//138
f 135//139 151//139 152//139 136//139
f 134//140 150//140 151//140 135//140
f 133//141 149//141 150//141 134//141
f 132//142 148//142 149//142 133//142
f 131//143 147//143 148//143 132//143
f 130//144 146//144 147//144 131//144
f 129//145 145//145 146//145 130//145
f 175//146 174//146 190//146 191//146
f 22//25 20//25 170//25 171//25
f 32//20 30//20 175//20 176//20
f 8//31 6//31 163//31 164//31
f 18//27 16//27 168//27 169//27
f 4//33 2//33 161//33 162//33
f 28//22 26//22 173//22 174//22
f 14//29 12//29 166//29 167//29
f 24//24 22//24 171//24 172//24
f 2//19 32//19 176//19 161//19
f 10//30 8//30 164//30 165//30
f 20//26 18//26 169//26 170//26
f 30//21 28//21 174//21 175//21
f 6//32 4//32 162//32 163//32
f 16//28 14//28 167//28 168//28
f 26//23 24//23 172//23 173//23
f 228//147 225//147 196//147 197//147
f 168//148 167//148 183//148 184//148
f 176//149 175//149 191//149 192//149
f 169//150 168//150 184//150 185//150
f 162//151 161//151 177//151 178//151
f 161//152 176//152 192//152 177//152
f 170//153 169//153 185//153 186//153
f 163//154 162//154 178//154 179//154
f 171//155 170//155 186//155 187//155
f 164//156 163//156 179//156 180//156
f 172//157 171//157 187//157 188//157
f 165//158 164//158 180//158 181//158
f 173//159 172//159 188//159 189//159
f 166//160 165//160 181//160 182//160
f 174//161 173//161 189//161 190//161
f 167//162 166//162 182//162 183//162
f 194//163 193//163 208//163 207//163 206//163 205//163 204//163 203//163 202//163 201//163 200//163 199//163 198//163 197//163 196//163 195//163
f 229//164 226//164 204//164 205//164
f 230//165 228//165 197//165 198//165
f 231//166 229//166 205//166 206//166
f 232//167 230//167 198//167 199//167
f 233//168 231//168 206//168 207//168
f 234//169 232//169 199//169 200//169
f 235//170 233//170 207//170 208//170
f 236//171 234//171 200//171 201//171
f 237//172 227//172 193//172 194//172
f 227//173 235//173 208//173 193//173
f 238//174 236//174 201//174 202//174
f 239//175 237//175 194//175 195//175
f 240//176 238//176 202//176 203//176
f 225//177 239//177 195//177 196//177
f 226//178 240//178 203//178 204//178
f 188//179 187//179 224//179 211//179
f 180//180 179//180 223//180 209//180
f 187//181 186//181 222//181 224//181
f 179//182 178//182 221//182 223//182
f 186//183 185//183 219//183 222//183
f 177//184 192//184 218//184 220//184
f 178//185 177//185 220//185 221//185
f 185//186 184//186 217//186 219//186
f 192//187 191//187 216//187 218//187
f 184//188 183//188 215//188 217//188
f 191//189 190//189 214//189 216//189
f 183//190 182//190 213//190 215//190
f 190//191 189//191 212//191 214//191
f 182//192 181//192 210//192 213//192
f 189//193 188//193 211//193 212//193
f 181//194 180//194 209//194 210//194
f 211//195 224//195 240//195 226//195
f 209//196 223//196 239//196 225//196
f 224//197 222//197 238//197 240//197
f 223//198 221//198 237//198 239//198
f 222//199 219//199 236//199 238//199
f 220//200 218//200 235//200 227//200
f 221//201 220//201 227//201 237//201
f 219//202 217//202 234//202 236//202
f 218//203 216//203 233//203 235//203
f 217//204 215//204 232//204 234//204
f 216//205 214//205 231//205 233//205
f 215//206 213//206 230//206 232//206
f 214//207 212//207 229//207 231//207
f 213//208 210//208 228//208 230//208
f 212//209 211//209 226//209 229//209
f 210//210 209//210 225//210 228//210
