# Blender v2.79 (sub 0) OBJ File: 'sprites.blend'
# www.blender.org
mtllib tangga.mtl
o Plane
v -0.702000 0.018141 0.039997
v -0.598000 0.018141 0.039997
v -0.702000 4.058141 0.039997
v -0.598000 4.058141 0.039997
v 0.598000 0.018141 0.039999
v 0.702000 0.018141 0.039999
v 0.598000 4.058141 0.039999
v 0.702000 4.058141 0.039999
v -0.598000 2.038141 0.039997
v 0.598000 2.038141 0.039999
v -0.702000 2.038141 0.039997
v 0.702000 2.038141 0.039999
v -0.598000 3.048141 0.039997
v -0.598000 1.028141 0.039997
v -0.702000 3.048141 0.039997
v -0.702000 1.028141 0.039997
v 0.702000 3.048141 0.039999
v 0.702000 1.028141 0.039999
v 0.598000 3.048141 0.039999
v 0.598000 1.028141 0.039999
v -0.598000 3.128941 0.039997
v -0.702000 3.128941 0.039997
v -0.702000 2.118941 0.039997
v -0.598000 2.118941 0.039997
v -0.598000 1.108941 0.039997
v -0.702000 1.108941 0.039997
v 0.702000 3.128941 0.039999
v 0.598000 3.128941 0.039999
v 0.598000 2.118941 0.039999
v 0.702000 2.118941 0.039999
v 0.702000 1.108941 0.039999
v 0.598000 1.108941 0.039999
v -0.702000 0.018141 0.039997
v -0.598000 0.018141 0.039997
v -0.702000 4.058141 0.039997
v -0.598000 4.058141 0.039997
v 0.598000 0.018141 0.039999
v 0.702000 0.018141 0.039999
v 0.598000 4.058141 0.039999
v 0.702000 4.058141 0.039999
v -0.598000 2.048241 0.029997
v 0.598000 2.048241 0.029999
v -0.702000 2.038141 0.039997
v 0.702000 2.038141 0.039999
v -0.598000 3.058241 0.029997
v -0.598000 1.038241 0.029997
v -0.702000 3.048141 0.039997
v -0.702000 1.028141 0.039997
v 0.702000 3.048141 0.039999
v 0.702000 1.028141 0.039999
v 0.598000 3.058241 0.029999
v 0.598000 1.038241 0.029999
v -0.598000 3.118841 0.029997
v -0.702000 3.128941 0.039997
v -0.702000 2.118941 0.039997
v -0.598000 2.108841 0.029997
v -0.598000 1.098841 0.029997
v -0.702000 1.108941 0.039997
v 0.702000 3.128941 0.039999
v 0.598000 3.118841 0.029999
v 0.598000 2.108841 0.029999
v 0.702000 2.118941 0.039999
v 0.702000 1.108941 0.039999
v 0.598000 1.098841 0.029999
v -0.702000 0.018141 -0.040003
v -0.598000 0.018141 -0.040003
v -0.702000 4.058141 -0.040003
v -0.598000 4.058141 -0.040003
v 0.598000 0.018141 -0.040001
v 0.702000 0.018141 -0.040001
v 0.598000 4.058141 -0.040001
v 0.702000 4.058141 -0.040001
v -0.598000 2.048241 -0.030003
v 0.598000 2.048241 -0.030001
v -0.702000 2.038141 -0.040003
v 0.702000 2.038141 -0.040001
v -0.598000 3.058241 -0.030003
v -0.598000 1.038241 -0.030003
v -0.702000 3.048141 -0.040003
v -0.702000 1.028141 -0.040003
v 0.702000 3.048141 -0.040001
v 0.702000 1.028141 -0.040001
v 0.598000 3.058241 -0.030001
v 0.598000 1.038241 -0.030001
v -0.598000 3.118841 -0.030003
v -0.702000 3.128941 -0.040003
v -0.702000 2.118941 -0.040003
v -0.598000 2.108841 -0.030003
v -0.598000 1.098841 -0.030003
v -0.702000 1.108941 -0.040003
v 0.702000 3.128941 -0.040001
v 0.598000 3.118841 -0.030001
v 0.598000 2.108841 -0.030001
v 0.702000 2.118941 -0.040001
v 0.702000 1.108941 -0.040001
v 0.598000 1.098841 -0.030001
v 0.598000 3.128941 0.039999
v 0.598000 3.048141 0.039999
v 0.598000 3.128941 -0.040001
v 0.598000 3.048141 -0.040001
v 0.598000 2.118941 0.039999
v 0.598000 2.038141 0.039999
v 0.598000 2.038141 -0.040001
v 0.598000 2.118941 -0.040001
v 0.598000 1.108941 0.039999
v 0.598000 1.108941 -0.040001
v 0.598000 1.028141 0.039999
v 0.598000 1.028141 -0.040001
v -0.598000 3.048141 0.039997
v -0.598000 3.128941 0.039997
v -0.598000 3.048141 -0.040003
v -0.598000 3.128941 -0.040003
v -0.598000 2.038141 0.039997
v -0.598000 2.118941 0.039997
v -0.598000 2.038141 -0.040003
v -0.598000 2.118941 -0.040003
v -0.598000 1.028141 0.039997
v -0.598000 1.108941 0.039997
v -0.598000 1.028141 -0.040003
v -0.598000 1.108941 -0.040003
vn 0.0000 -0.0000 1.0000
vn 0.0000 -1.0000 -0.0000
vn -1.0000 0.0000 0.0000
vn 1.0000 0.0000 0.0000
vn 0.0000 1.0000 0.0000
vn 0.0000 0.0000 -1.0000
usemtl Material.002
s off
f 21//1 22//1 15//1 13//1
f 23//1 11//1 9//1 24//1
f 25//1 9//1 11//1 26//1
f 16//1 1//1 2//1 14//1
f 4//1 3//1 22//1 21//1
f 15//1 23//1 24//1 13//1
f 14//1 25//1 26//1 16//1
f 27//1 28//1 19//1 17//1
f 29//1 10//1 12//1 30//1
f 31//1 12//1 10//1 32//1
f 20//1 5//1 6//1 18//1
f 8//1 7//1 28//1 27//1
f 19//1 29//1 30//1 17//1
f 18//1 31//1 32//1 20//1
f 37//2 69//2 70//2 38//2
f 107//3 108//3 69//3 37//3
f 38//4 70//4 82//4 50//4
f 36//5 68//5 67//5 35//5
f 62//4 94//4 81//4 49//4
f 47//3 79//3 87//3 55//3
f 110//4 112//4 68//4 36//4
f 102//3 103//3 106//3 105//3
f 58//3 90//3 80//3 48//3
f 33//2 65//2 66//2 34//2
f 50//4 82//4 95//4 63//4
f 54//3 86//3 79//3 47//3
f 35//3 67//3 86//3 54//3
f 20//1 107//1 37//1 5//1
f 5//1 37//1 38//1 6//1
f 14//1 117//1 118//1 25//1
f 27//1 59//1 40//1 8//1
f 11//1 43//1 58//1 26//1
f 8//1 40//1 39//1 7//1
f 25//1 118//1 113//1 9//1
f 17//1 49//1 59//1 27//1
f 28//1 97//1 98//1 19//1
f 29//1 101//1 102//1 10//1
f 7//1 39//1 97//1 28//1
f 23//1 55//1 43//1 11//1
f 32//1 105//1 107//1 20//1
f 31//1 63//1 44//1 12//1
f 19//1 98//1 101//1 29//1
f 24//1 114//1 109//1 13//1
f 12//1 44//1 62//1 30//1
f 13//1 109//1 110//1 21//1
f 2//1 34//1 117//1 14//1
f 16//1 48//1 33//1 1//1
f 3//1 35//1 54//1 22//1
f 22//1 54//1 47//1 15//1
f 18//1 50//1 63//1 31//1
f 1//1 33//1 34//1 2//1
f 26//1 58//1 48//1 16//1
f 10//1 102//1 105//1 32//1
f 21//1 110//1 36//1 4//1
f 15//1 47//1 55//1 23//1
f 30//1 62//1 49//1 17//1
f 4//1 36//1 35//1 3//1
f 9//1 113//1 114//1 24//1
f 6//1 38//1 50//1 18//1
f 112//6 111//6 79//6 86//6
f 87//6 116//6 115//6 75//6
f 120//6 90//6 75//6 115//6
f 80//6 119//6 66//6 65//6
f 68//6 112//6 86//6 67//6
f 79//6 111//6 116//6 87//6
f 119//6 80//6 90//6 120//6
f 91//6 81//6 100//6 99//6
f 104//6 94//6 76//6 103//6
f 95//6 106//6 103//6 76//6
f 108//6 82//6 70//6 69//6
f 72//6 91//6 99//6 71//6
f 100//6 81//6 94//6 104//6
f 82//6 108//6 106//6 95//6
f 59//4 91//4 72//4 40//4
f 43//3 75//3 90//3 58//3
f 40//5 72//5 71//5 39//5
f 118//4 120//4 115//4 113//4
f 49//4 81//4 91//4 59//4
f 39//3 71//3 99//3 97//3
f 55//3 87//3 75//3 43//3
f 63//4 95//4 76//4 44//4
f 98//3 100//3 104//3 101//3
f 114//4 116//4 111//4 109//4
f 44//4 76//4 94//4 62//4
f 34//4 66//4 119//4 117//4
f 48//3 80//3 65//3 33//3
f 60//3 51//3 98//3 97//3
f 83//3 92//3 99//3 100//3
f 51//3 83//3 100//3 98//3
f 92//3 60//3 97//3 99//3
f 61//3 42//3 102//3 101//3
f 42//3 74//3 103//3 102//3
f 74//3 93//3 104//3 103//3
f 93//3 61//3 101//3 104//3
f 96//3 64//3 105//3 106//3
f 64//3 52//3 107//3 105//3
f 84//3 96//3 106//3 108//3
f 52//3 84//3 108//3 107//3
f 45//4 53//4 110//4 109//4
f 85//4 77//4 111//4 112//4
f 53//4 85//4 112//4 110//4
f 77//4 45//4 109//4 111//4
f 41//4 56//4 114//4 113//4
f 88//4 73//4 115//4 116//4
f 56//4 88//4 116//4 114//4
f 73//4 41//4 113//4 115//4
f 46//4 57//4 118//4 117//4
f 89//4 78//4 119//4 120//4
f 57//4 89//4 120//4 118//4
f 78//4 46//4 117//4 119//4
f 64//1 57//1 46//1 52//1
f 96//5 89//5 57//5 64//5
f 96//6 84//6 78//6 89//6
f 60//5 92//5 85//5 53//5
f 60//1 53//1 45//1 51//1
f 83//2 51//2 45//2 77//2
f 92//6 83//6 77//6 85//6
f 93//5 88//5 56//5 61//5
f 61//1 56//1 41//1 42//1
f 42//2 41//2 73//2 74//2
f 93//6 74//6 73//6 88//6
